<?xml version="1.0" ?><svg enable-background="new 0 0 256 256" id="Layer_1" version="1.1" viewBox="0 0 256 256" xml:space="preserve" xmlns="http://www.w3.org/2000/svg" xmlns:xlink="http://www.w3.org/1999/xlink"><g><path d="M128,4.2C59.5,4.2,4,59.6,4,128c0,68.4,55.5,123.8,124,123.8c68.5,0,124-55.4,124-123.8   C252,59.6,196.5,4.2,128,4.2z M234.7,128c0,58.8-47.8,106.5-106.7,106.5c-58.9,0-106.7-47.7-106.7-106.5   C21.3,69.2,69.1,21.5,128,21.5C186.9,21.5,234.7,69.2,234.7,128z" fill="none"/><path d="M44.9,219.8c22,19.8,51.1,31.9,83.1,31.9c68.5,0,124-55.4,124-123.8   c0-31.2-11.6-59.8-30.7-81.6C321.6,148.2,145.2,321.6,44.9,219.8z" fill="none" opacity="0.15"/><path d="M128,21.5C69.1,21.5,21.3,69.2,21.3,128c0,58.8,47.8,106.5,106.7,106.5c58.9,0,106.7-47.7,106.7-106.5   C234.7,69.2,186.9,21.5,128,21.5z M203.7,105.9c-9.2,17.8-45,22.3-45,22.3s35.8,4.4,45,22.2c9.2,17.8-6.7,34.6-19.8,33.4   c1.2,13.1-15.7,28.9-33.5,19.8c-17.8-9.1-22.3-44.9-22.3-44.9s-4.7,35.5-22.5,44.6c-17.8,9.1-34.6-6.7-33.5-19.8   c-13.2,1.2-29-15.6-19.8-33.4s45-22.2,45-22.2s-35.8-4.5-45-22.3S58.9,71,72.1,72.2c-1.2-13.1,15.7-28.9,33.5-19.8   s22.3,44.9,22.3,44.9s4.7-35.5,22.5-44.6s34.6,6.7,33.5,19.8C197.1,71.3,212.9,88.1,203.7,105.9z" fill="none"/><path d="M203.7,105.9c-9.2,17.8-45,22.3-45,22.3s35.8,4.4,45,22.2c9.2,17.8-6.7,34.6-19.8,33.4   c1.2,13.1-15.7,28.9-33.5,19.8c-17.8-9.1-22.3-44.9-22.3-44.9s-4.7,35.5-22.5,44.6c0,0,13.7-3.3,20.5-7.7s9.9,12.3,18.1,15.5   c8.2,3.2,14.4,5,21,3.4c6.6-1.6,11.1-3.7,16-7.7c4.9-4,5.3-10.5,10.4-15.3c5.1-4.8,11.3-6.2,16.1-12.1c4.9-6,6.9-8.3,7.9-14.6   s-1.1-14.1-3.5-19.4s-17.9-14.5-17.8-18.1C194.4,123.7,203.7,105.9,203.7,105.9z" fill="none" opacity="0.15"/><path d="M176.1,32.9c-14.5-7.3-30.8-11.4-48.1-11.4C69.1,21.5,21.3,69.2,21.3,128   c0,45.4,28.4,84.1,68.5,99.4C-35,172.3,51.4-22.2,176.1,32.9z" fill="none" opacity="0.15"/><path d="M203.7,105.9c-9.2,17.8-45,22.3-45,22.3s35.8,4.4,45,22.2c9.2,17.8-6.7,34.6-19.8,33.4   c1.2,13.1-15.7,28.9-33.5,19.8c-17.8-9.1-22.3-44.9-22.3-44.9s-4.7,35.5-22.5,44.6c-17.8,9.1-34.6-6.7-33.5-19.8   c-13.2,1.2-29-15.6-19.8-33.4s45-22.2,45-22.2s-35.8-4.5-45-22.3S58.9,71,72.1,72.2c-1.2-13.1,15.7-28.9,33.5-19.8   s22.3,44.9,22.3,44.9s4.7-35.5,22.5-44.6s34.6,6.7,33.5,19.8C197.1,71.3,212.9,88.1,203.7,105.9z" fill="none"/><path d="M160.6,191.7c-13.2,3.8-21.5-24-23.7-29.6c-2.2-5.6-3.3-11.6-10-11.1   c-6.7,0.5-9.6,19.1-12.8,27.8c-3.1,8.6-5.8,16.8-19.5,19s-22.5-14.3-22.5-14.3c-1.2,13.1,15.7,28.9,33.5,19.8   c17.8-9.1,22.5-44.6,22.5-44.6s4.5,35.7,22.3,44.9c17.8,9.1,34.6-6.7,33.5-19.8c13.2,1.2,29-15.6,19.8-33.4   c-9.2-17.8-45-22.2-45-22.2s35.8-4.5,45-22.3c9.2-17.8-6.7-34.6-19.8-33.4c0,0,3.7,4,8,13.6c4.3,9.6-1.8,20-10.9,25.8   s-30.1,7.8-30.5,17s32.7,12.6,39.6,26.4c6.9,13.8-8.6,14.7-13,20.1S173.8,187.9,160.6,191.7z" fill="none" opacity="0.15"/><path d="   M128,4.2C59.5,4.2,4,59.6,4,128c0,68.4,55.5,123.8,124,123.8c68.5,0,124-55.4,124-123.8C252,59.6,196.5,4.2,128,4.2z M234.7,128   c0,58.8-47.8,106.5-106.7,106.5c-58.9,0-106.7-47.7-106.7-106.5C21.3,69.2,69.1,21.5,128,21.5C186.9,21.5,234.7,69.2,234.7,128z" fill="none" stroke="#434A54" stroke-linecap="round" stroke-linejoin="round" stroke-miterlimit="10" stroke-width="8"/><path d="   M128,21.5C69.1,21.5,21.3,69.2,21.3,128c0,58.8,47.8,106.5,106.7,106.5c58.9,0,106.7-47.7,106.7-106.5   C234.7,69.2,186.9,21.5,128,21.5z M203.7,105.9c-9.2,17.8-45,22.3-45,22.3s35.8,4.4,45,22.2c9.2,17.8-6.7,34.6-19.8,33.4   c1.2,13.1-15.7,28.9-33.5,19.8c-17.8-9.1-22.3-44.9-22.3-44.9s-4.7,35.5-22.5,44.6c-17.8,9.1-34.6-6.7-33.5-19.8   c-13.2,1.2-29-15.6-19.8-33.4s45-22.2,45-22.2s-35.8-4.5-45-22.3S58.9,71,72.1,72.2c-1.2-13.1,15.7-28.9,33.5-19.8   s22.3,44.9,22.3,44.9s4.7-35.5,22.5-44.6s34.6,6.7,33.5,19.8C197.1,71.3,212.9,88.1,203.7,105.9z" fill="none" stroke="#434A54" stroke-linecap="round" stroke-linejoin="round" stroke-miterlimit="10" stroke-width="8"/><path d="   M203.7,105.9c-9.2,17.8-45,22.3-45,22.3s35.8,4.4,45,22.2c9.2,17.8-6.7,34.6-19.8,33.4c1.2,13.1-15.7,28.9-33.5,19.8   c-17.8-9.1-22.3-44.9-22.3-44.9s-4.7,35.5-22.5,44.6c-17.8,9.1-34.6-6.7-33.5-19.8c-13.2,1.2-29-15.6-19.8-33.4s45-22.2,45-22.2   s-35.8-4.5-45-22.3S58.9,71,72.1,72.2c-1.2-13.1,15.7-28.9,33.5-19.8s22.3,44.9,22.3,44.9s4.7-35.5,22.5-44.6s34.6,6.7,33.5,19.8   C197.1,71.3,212.9,88.1,203.7,105.9z" fill="none" stroke="#434A54" stroke-linecap="round" stroke-linejoin="round" stroke-miterlimit="10" stroke-width="8"/></g></svg>