<?xml version="1.0" ?><!DOCTYPE svg  PUBLIC '-//W3C//DTD SVG 1.1//EN'  'http://www.w3.org/Graphics/SVG/1.1/DTD/svg11.dtd'><svg enable-background="new 0 0 64 64" height="64px" id="Layer_1" version="1.1" viewBox="0 0 64 64" width="64px" xml:space="preserve" xmlns="http://www.w3.org/2000/svg" xmlns:xlink="http://www.w3.org/1999/xlink"><g id="turkey_1_"><g><path d="M59.248,19.331c-0.558-0.558-1.351-0.813-2.128-0.701c0.113-0.765-0.132-1.559-0.701-2.128    c-0.942-0.944-2.589-0.945-3.535,0c-0.975,0.975-0.975,2.56,0,3.536l-2.596,2.596c0.03-0.001,0.056-0.009,0.087-0.009    c0.422,0,0.786,0.089,1.098,0.238l2.976-2.976l-0.552-0.329c-0.13-0.077-0.228-0.15-0.306-0.228    c-0.283-0.283-0.439-0.66-0.439-1.062c0-0.4,0.156-0.777,0.439-1.061c0.567-0.567,1.555-0.565,2.121,0    c0.48,0.48,0.573,1.229,0.227,1.819l-0.195,0.333l0.646,0.646l0.333-0.195c0.575-0.339,1.35-0.244,1.819,0.227    c0.283,0.283,0.439,0.659,0.439,1.061c0,0.4-0.156,0.777-0.439,1.061c-0.567,0.567-1.558,0.564-2.121,0.001    c-0.078-0.079-0.151-0.177-0.229-0.307l-0.329-0.552l-3.157,3.157c0.114,0.473,0.105,0.974-0.027,1.441l3.034-3.034    c0.945,0.945,2.591,0.946,3.536,0c0.473-0.473,0.732-1.101,0.732-1.768C59.98,20.431,59.721,19.803,59.248,19.331z" fill="#37474F"/></g><g><g><path d="M55.113,37.902c-0.945-0.213-2.079-0.453-2.509-2.037c-0.338-1.242-0.813-2.418-1.393-3.535     c0.045,0.552-0.062,1.117-0.333,1.591c0.314,0.712,0.585,1.445,0.792,2.206c0.588,2.165,2.233,2.532,3.207,2.751     c0.241,0.055,0.59,0.12,0.614,0.122c0,0.204-0.064,0.406-0.154,0.607c0.305,0.163,0.588,0.354,0.852,0.574     C56.385,39.811,56.5,39.417,56.5,39C56.5,38.215,55.73,38.042,55.113,37.902z" fill="#37474F"/></g></g><g><path d="M41.899,40.848c-1.842,0-3.582-0.766-5.031-2.216c-3.14-3.14-4.131-8.506,0.049-12.687    c2.818-2.817,7.825-4.078,11.538-4.078c1.165,0,3.253,0.134,4.148,1.029c2.021,2.021,0.085,10.552-4.049,14.687    C46.418,39.719,44.117,40.848,41.899,40.848z M48.455,22.867c-3.507,0-8.216,1.17-10.831,3.785    c-3.716,3.717-2.837,8.484-0.049,11.272c1.258,1.258,2.754,1.923,4.324,1.923c1.946,0,4.004-1.027,5.948-2.972    c4.13-4.131,5.423-11.898,4.049-13.272C51.54,23.247,50.449,22.867,48.455,22.867z" fill="#37474F"/></g><g><path d="M42.5,20.5c-0.276,0-0.5-0.224-0.5-0.5c0-1.068,0.654-1.613,1.18-2.052c0.524-0.437,0.82-0.712,0.82-1.283    s-0.296-0.847-0.82-1.283C42.654,14.943,42,14.398,42,13.33c0-1.066,0.654-1.611,1.18-2.049C43.704,10.845,44,10.57,44,10    c0-0.276,0.224-0.5,0.5-0.5S45,9.724,45,10c0,1.066-0.654,1.611-1.18,2.049C43.296,12.485,43,12.76,43,13.33    c0,0.572,0.297,0.847,0.82,1.284c0.525,0.438,1.18,0.983,1.18,2.051s-0.654,1.613-1.18,2.051C43.297,19.153,43,19.428,43,20    C43,20.276,42.776,20.5,42.5,20.5z" fill="#37474F"/></g><g><path d="M47.5,19.5c-0.276,0-0.5-0.224-0.5-0.5c0-1.068,0.654-1.613,1.18-2.052c0.524-0.437,0.82-0.712,0.82-1.283    s-0.296-0.847-0.82-1.283C47.654,13.943,47,13.398,47,12.33c0-1.066,0.654-1.611,1.18-2.049C48.704,9.845,49,9.57,49,9    c0-0.276,0.224-0.5,0.5-0.5S50,8.724,50,9c0,1.066-0.654,1.611-1.18,2.049C48.296,11.485,48,11.76,48,12.33    c0,0.572,0.297,0.847,0.82,1.284c0.525,0.438,1.18,0.983,1.18,2.051s-0.654,1.613-1.18,2.051C48.297,18.153,48,18.428,48,19    C48,19.276,47.776,19.5,47.5,19.5z" fill="#37474F"/></g><g><path d="M23.5,19.5c-0.276,0-0.5-0.224-0.5-0.5c0-1.068,0.654-1.613,1.18-2.052c0.524-0.437,0.82-0.712,0.82-1.283    s-0.296-0.847-0.82-1.283C23.654,13.943,23,13.398,23,12.33c0-1.066,0.654-1.611,1.18-2.049C24.704,9.845,25,9.57,25,9    c0-0.276,0.224-0.5,0.5-0.5S26,8.724,26,9c0,1.066-0.654,1.611-1.18,2.049C24.296,11.485,24,11.76,24,12.33    c0,0.572,0.297,0.847,0.82,1.284c0.525,0.438,1.18,0.983,1.18,2.051s-0.654,1.613-1.18,2.051C24.297,18.153,24,18.428,24,19    C24,19.276,23.776,19.5,23.5,19.5z" fill="#37474F"/></g><g><path d="M28.5,18.5c-0.276,0-0.5-0.224-0.5-0.5c0-1.068,0.654-1.613,1.18-2.052c0.524-0.437,0.82-0.712,0.82-1.283    s-0.296-0.847-0.82-1.283C28.654,12.943,28,12.398,28,11.33c0-1.066,0.654-1.611,1.18-2.049C29.704,8.845,30,8.57,30,8    c0-0.276,0.224-0.5,0.5-0.5S31,7.724,31,8c0,1.066-0.654,1.611-1.18,2.049C29.296,10.485,29,10.76,29,11.33    c0,0.572,0.297,0.847,0.82,1.284c0.525,0.438,1.18,0.983,1.18,2.051s-0.654,1.613-1.18,2.051C29.297,17.153,29,17.428,29,18    C29,18.276,28.776,18.5,28.5,18.5z" fill="#37474F"/></g><g><g><path d="M57.705,42.372c0.171,0.493,0.281,1.015,0.288,1.563C58.65,44.616,59,45.313,59,46c0,3.863-10.85,8-27,8     S5,49.863,5,46c0-0.688,0.35-1.384,1.007-2.064c0.007-0.549,0.117-1.07,0.288-1.563C4.819,43.477,4,44.702,4,46     c0,5.047,12.299,9,28,9s28-3.953,28-9C60,44.702,59.181,43.477,57.705,42.372z" fill="#37474F"/></g><path d="M53,48c-2.206,0-4-1.794-4-4s1.794-4,4-4s4,1.794,4,4S55.206,48,53,48z M53,41c-1.654,0-3,1.346-3,3    s1.346,3,3,3s3-1.346,3-3S54.654,41,53,41z" fill="#37474F"/></g><g><path d="M46,50c-2.206,0-4-1.794-4-4s1.794-4,4-4s4,1.794,4,4S48.206,50,46,50z M46,43c-1.654,0-3,1.346-3,3    s1.346,3,3,3s3-1.346,3-3S47.654,43,46,43z" fill="#37474F"/></g><g><path d="M39,51c-2.206,0-4-1.794-4-4s1.794-4,4-4s4,1.794,4,4S41.206,51,39,51z M39,44c-1.654,0-3,1.346-3,3    s1.346,3,3,3s3-1.346,3-3S40.654,44,39,44z" fill="#37474F"/></g><g><path d="M32,51c-2.206,0-4-1.794-4-4s1.794-4,4-4s4,1.794,4,4S34.206,51,32,51z M32,44c-1.654,0-3,1.346-3,3    s1.346,3,3,3s3-1.346,3-3S33.654,44,32,44z" fill="#37474F"/></g><g><path d="M25,51c-2.206,0-4-1.794-4-4s1.794-4,4-4s4,1.794,4,4S27.206,51,25,51z M25,44c-1.654,0-3,1.346-3,3    s1.346,3,3,3s3-1.346,3-3S26.654,44,25,44z" fill="#37474F"/></g><g><path d="M18,50c-2.206,0-4-1.794-4-4s1.794-4,4-4s4,1.794,4,4S20.206,50,18,50z M18,43c-1.654,0-3,1.346-3,3    s1.346,3,3,3s3-1.346,3-3S19.654,43,18,43z" fill="#37474F"/></g><g><path d="M10.005,39.101C10.005,39.065,10,39.035,10,39c0-9.374,9.421-17,21-17c2.765,0,5.411,0.465,7.853,1.294    c0.402-0.225,0.816-0.435,1.244-0.627C37.308,21.592,34.226,21,31,21C18.869,21,9,29.075,9,39c0,0.144,0.017,0.272,0.021,0.412    C9.334,39.276,9.662,39.17,10.005,39.101z" fill="#37474F"/><path d="M11,48c-2.206,0-4-1.794-4-4s1.794-4,4-4s4,1.794,4,4S13.206,48,11,48z M11,41c-1.654,0-3,1.346-3,3    s1.346,3,3,3s3-1.346,3-3S12.654,41,11,41z" fill="#37474F"/></g><path d="M59,46v3c0,3.863-10.85,8-27,8S5,52.863,5,49v-3H4v3c0,5.047,12.299,9,28,9s28-3.953,28-9v-3H59z" fill="#37474F"/></g></svg>